<mxfile host="app.diagrams.net" modified="2020-08-10T13:39:16.948Z" agent="5.0 (Windows NT 10.0; Win64; x64) AppleWebKit/537.36 (KHTML, like Gecko) Chrome/84.0.4147.105 Safari/537.36" etag="H0dCpeno_URzkIBVngIf" version="13.6.2" type="github" pages="4">
  <diagram id="lj2R0eWJ9KgmQzMsldro" name="Page-2">
    <mxGraphModel dx="1039" dy="499" grid="1" gridSize="10" guides="1" tooltips="1" connect="1" arrows="1" fold="1" page="1" pageScale="1" pageWidth="827" pageHeight="1169" math="0" shadow="0">
      <root>
        <mxCell id="KsJ-Q7gFp0fKNFRPNGz_-0" />
        <mxCell id="KsJ-Q7gFp0fKNFRPNGz_-1" parent="KsJ-Q7gFp0fKNFRPNGz_-0" />
        <mxCell id="KsJ-Q7gFp0fKNFRPNGz_-2" value="" style="ellipse;html=1;shape=startState;fillColor=#000000;strokeColor=#ff0000;" vertex="1" parent="KsJ-Q7gFp0fKNFRPNGz_-1">
          <mxGeometry x="390" y="40" width="30" height="30" as="geometry" />
        </mxCell>
        <mxCell id="KsJ-Q7gFp0fKNFRPNGz_-3" value="" style="edgeStyle=orthogonalEdgeStyle;html=1;verticalAlign=bottom;endArrow=open;endSize=8;strokeColor=#ff0000;" edge="1" source="KsJ-Q7gFp0fKNFRPNGz_-2" parent="KsJ-Q7gFp0fKNFRPNGz_-1">
          <mxGeometry relative="1" as="geometry">
            <mxPoint x="405" y="130" as="targetPoint" />
          </mxGeometry>
        </mxCell>
        <mxCell id="KsJ-Q7gFp0fKNFRPNGz_-8" style="edgeStyle=orthogonalEdgeStyle;rounded=0;orthogonalLoop=1;jettySize=auto;html=1;exitX=0.5;exitY=1;exitDx=0;exitDy=0;entryX=0.5;entryY=0;entryDx=0;entryDy=0;entryPerimeter=0;" edge="1" parent="KsJ-Q7gFp0fKNFRPNGz_-1" source="KsJ-Q7gFp0fKNFRPNGz_-5" target="KsJ-Q7gFp0fKNFRPNGz_-7">
          <mxGeometry relative="1" as="geometry" />
        </mxCell>
        <mxCell id="KsJ-Q7gFp0fKNFRPNGz_-5" value="nhap&amp;nbsp; thong tin benh nhan" style="html=1;" vertex="1" parent="KsJ-Q7gFp0fKNFRPNGz_-1">
          <mxGeometry x="350" y="130" width="110" height="50" as="geometry" />
        </mxCell>
        <mxCell id="KsJ-Q7gFp0fKNFRPNGz_-10" value="hop le" style="edgeStyle=orthogonalEdgeStyle;rounded=0;orthogonalLoop=1;jettySize=auto;html=1;exitX=0.5;exitY=1;exitDx=0;exitDy=0;exitPerimeter=0;entryX=0.5;entryY=0;entryDx=0;entryDy=0;entryPerimeter=0;" edge="1" parent="KsJ-Q7gFp0fKNFRPNGz_-1" source="KsJ-Q7gFp0fKNFRPNGz_-7" target="KsJ-Q7gFp0fKNFRPNGz_-9">
          <mxGeometry relative="1" as="geometry" />
        </mxCell>
        <mxCell id="KsJ-Q7gFp0fKNFRPNGz_-11" value="khong hop le" style="edgeStyle=orthogonalEdgeStyle;rounded=0;orthogonalLoop=1;jettySize=auto;html=1;exitX=1;exitY=0.5;exitDx=0;exitDy=0;exitPerimeter=0;entryX=1;entryY=0.5;entryDx=0;entryDy=0;" edge="1" parent="KsJ-Q7gFp0fKNFRPNGz_-1" source="KsJ-Q7gFp0fKNFRPNGz_-7" target="KsJ-Q7gFp0fKNFRPNGz_-5">
          <mxGeometry relative="1" as="geometry">
            <mxPoint x="600" y="150" as="targetPoint" />
          </mxGeometry>
        </mxCell>
        <mxCell id="KsJ-Q7gFp0fKNFRPNGz_-7" value="kiem tra thong tin dau vao" style="strokeWidth=2;html=1;shape=mxgraph.flowchart.decision;whiteSpace=wrap;" vertex="1" parent="KsJ-Q7gFp0fKNFRPNGz_-1">
          <mxGeometry x="360" y="210" width="100" height="100" as="geometry" />
        </mxCell>
        <mxCell id="KsJ-Q7gFp0fKNFRPNGz_-13" value="chua co" style="edgeStyle=orthogonalEdgeStyle;rounded=0;orthogonalLoop=1;jettySize=auto;html=1;exitX=0.5;exitY=1;exitDx=0;exitDy=0;exitPerimeter=0;" edge="1" parent="KsJ-Q7gFp0fKNFRPNGz_-1" source="KsJ-Q7gFp0fKNFRPNGz_-9" target="KsJ-Q7gFp0fKNFRPNGz_-12">
          <mxGeometry relative="1" as="geometry" />
        </mxCell>
        <mxCell id="KsJ-Q7gFp0fKNFRPNGz_-14" value="co roi" style="edgeStyle=orthogonalEdgeStyle;rounded=0;orthogonalLoop=1;jettySize=auto;html=1;exitX=1;exitY=0.5;exitDx=0;exitDy=0;exitPerimeter=0;" edge="1" parent="KsJ-Q7gFp0fKNFRPNGz_-1" source="KsJ-Q7gFp0fKNFRPNGz_-9" target="KsJ-Q7gFp0fKNFRPNGz_-15">
          <mxGeometry relative="1" as="geometry">
            <mxPoint x="690" y="490" as="targetPoint" />
          </mxGeometry>
        </mxCell>
        <mxCell id="KsJ-Q7gFp0fKNFRPNGz_-9" value="/kiem tra xem thong tin co trong he thong chua" style="strokeWidth=2;html=1;shape=mxgraph.flowchart.decision;whiteSpace=wrap;" vertex="1" parent="KsJ-Q7gFp0fKNFRPNGz_-1">
          <mxGeometry x="360" y="370" width="100" height="100" as="geometry" />
        </mxCell>
        <mxCell id="KsJ-Q7gFp0fKNFRPNGz_-17" style="edgeStyle=orthogonalEdgeStyle;rounded=0;orthogonalLoop=1;jettySize=auto;html=1;exitX=0.5;exitY=1;exitDx=0;exitDy=0;" edge="1" parent="KsJ-Q7gFp0fKNFRPNGz_-1" source="KsJ-Q7gFp0fKNFRPNGz_-12" target="KsJ-Q7gFp0fKNFRPNGz_-19">
          <mxGeometry relative="1" as="geometry">
            <mxPoint x="430" y="640" as="targetPoint" />
          </mxGeometry>
        </mxCell>
        <mxCell id="KsJ-Q7gFp0fKNFRPNGz_-12" value="luu thong tin benh nhan moi" style="html=1;" vertex="1" parent="KsJ-Q7gFp0fKNFRPNGz_-1">
          <mxGeometry x="110" y="520" width="180" height="50" as="geometry" />
        </mxCell>
        <mxCell id="KsJ-Q7gFp0fKNFRPNGz_-18" style="edgeStyle=orthogonalEdgeStyle;rounded=0;orthogonalLoop=1;jettySize=auto;html=1;exitX=0.5;exitY=1;exitDx=0;exitDy=0;" edge="1" parent="KsJ-Q7gFp0fKNFRPNGz_-1" source="KsJ-Q7gFp0fKNFRPNGz_-15">
          <mxGeometry relative="1" as="geometry">
            <mxPoint x="450" y="640" as="targetPoint" />
          </mxGeometry>
        </mxCell>
        <mxCell id="KsJ-Q7gFp0fKNFRPNGz_-15" value="update thong tin benh nhan" style="html=1;" vertex="1" parent="KsJ-Q7gFp0fKNFRPNGz_-1">
          <mxGeometry x="540" y="510" width="170" height="50" as="geometry" />
        </mxCell>
        <mxCell id="KsJ-Q7gFp0fKNFRPNGz_-19" value="" style="ellipse;html=1;shape=endState;fillColor=#000000;strokeColor=#ff0000;" vertex="1" parent="KsJ-Q7gFp0fKNFRPNGz_-1">
          <mxGeometry x="415" y="640" width="65" height="15" as="geometry" />
        </mxCell>
      </root>
    </mxGraphModel>
  </diagram>
  <diagram id="qxIxbQdSaNCAs4dN-cOA" name="Page-3">
    <mxGraphModel dx="1039" dy="499" grid="1" gridSize="10" guides="1" tooltips="1" connect="1" arrows="1" fold="1" page="1" pageScale="1" pageWidth="827" pageHeight="1169" math="0" shadow="0">
      <root>
        <mxCell id="xK25yoGUtcKPgYVMk1Dz-0" />
        <mxCell id="xK25yoGUtcKPgYVMk1Dz-1" parent="xK25yoGUtcKPgYVMk1Dz-0" />
        <mxCell id="xK25yoGUtcKPgYVMk1Dz-3" style="edgeStyle=orthogonalEdgeStyle;rounded=0;orthogonalLoop=1;jettySize=auto;html=1;exitX=0.5;exitY=1;exitDx=0;exitDy=0;" edge="1" parent="xK25yoGUtcKPgYVMk1Dz-1" source="xK25yoGUtcKPgYVMk1Dz-2" target="xK25yoGUtcKPgYVMk1Dz-4">
          <mxGeometry relative="1" as="geometry">
            <mxPoint x="414" y="110" as="targetPoint" />
          </mxGeometry>
        </mxCell>
        <mxCell id="xK25yoGUtcKPgYVMk1Dz-2" value="" style="ellipse;html=1;shape=endState;fillColor=#000000;strokeColor=#ff0000;" vertex="1" parent="xK25yoGUtcKPgYVMk1Dz-1">
          <mxGeometry x="399" y="30" width="30" height="30" as="geometry" />
        </mxCell>
        <mxCell id="xK25yoGUtcKPgYVMk1Dz-5" style="edgeStyle=orthogonalEdgeStyle;rounded=0;orthogonalLoop=1;jettySize=auto;html=1;exitX=0.5;exitY=1;exitDx=0;exitDy=0;" edge="1" parent="xK25yoGUtcKPgYVMk1Dz-1" source="xK25yoGUtcKPgYVMk1Dz-4" target="xK25yoGUtcKPgYVMk1Dz-6">
          <mxGeometry relative="1" as="geometry">
            <mxPoint x="395" y="190" as="targetPoint" />
          </mxGeometry>
        </mxCell>
        <mxCell id="xK25yoGUtcKPgYVMk1Dz-4" value="nhap input(ma so benh nhan)" style="html=1;" vertex="1" parent="xK25yoGUtcKPgYVMk1Dz-1">
          <mxGeometry x="290" y="100" width="210" height="50" as="geometry" />
        </mxCell>
        <mxCell id="xK25yoGUtcKPgYVMk1Dz-7" value="hop le&amp;nbsp;" style="edgeStyle=orthogonalEdgeStyle;rounded=0;orthogonalLoop=1;jettySize=auto;html=1;exitX=0.5;exitY=1;exitDx=0;exitDy=0;" edge="1" parent="xK25yoGUtcKPgYVMk1Dz-1" source="xK25yoGUtcKPgYVMk1Dz-6">
          <mxGeometry relative="1" as="geometry">
            <mxPoint x="395" y="370" as="targetPoint" />
          </mxGeometry>
        </mxCell>
        <mxCell id="xK25yoGUtcKPgYVMk1Dz-8" value="khong hop le" style="edgeStyle=orthogonalEdgeStyle;rounded=0;orthogonalLoop=1;jettySize=auto;html=1;exitX=1;exitY=0.5;exitDx=0;exitDy=0;entryX=1;entryY=0.5;entryDx=0;entryDy=0;" edge="1" parent="xK25yoGUtcKPgYVMk1Dz-1" source="xK25yoGUtcKPgYVMk1Dz-6" target="xK25yoGUtcKPgYVMk1Dz-4">
          <mxGeometry relative="1" as="geometry">
            <Array as="points">
              <mxPoint x="610" y="250" />
              <mxPoint x="610" y="125" />
            </Array>
          </mxGeometry>
        </mxCell>
        <mxCell id="xK25yoGUtcKPgYVMk1Dz-6" value="Kiem tra thong tin&amp;nbsp;" style="rhombus;whiteSpace=wrap;html=1;" vertex="1" parent="xK25yoGUtcKPgYVMk1Dz-1">
          <mxGeometry x="355" y="210" width="80" height="80" as="geometry" />
        </mxCell>
        <mxCell id="xK25yoGUtcKPgYVMk1Dz-9" value="xuat thong tin benh nhan" style="rounded=0;whiteSpace=wrap;html=1;" vertex="1" parent="xK25yoGUtcKPgYVMk1Dz-1">
          <mxGeometry x="260" y="370" width="320" height="60" as="geometry" />
        </mxCell>
      </root>
    </mxGraphModel>
  </diagram>
  <diagram id="pUBJtxmbYdFBLs-79qBn" name="Page-4">
    <mxGraphModel dx="1039" dy="499" grid="1" gridSize="10" guides="1" tooltips="1" connect="1" arrows="1" fold="1" page="1" pageScale="1" pageWidth="827" pageHeight="1169" math="0" shadow="0">
      <root>
        <mxCell id="AyFpdh3RZS2hmIeQLzF2-0" />
        <mxCell id="AyFpdh3RZS2hmIeQLzF2-1" parent="AyFpdh3RZS2hmIeQLzF2-0" />
        <mxCell id="Jpv0Y1uDcZkm7c2eD9yi-1" style="edgeStyle=orthogonalEdgeStyle;rounded=0;orthogonalLoop=1;jettySize=auto;html=1;exitX=0.5;exitY=1;exitDx=0;exitDy=0;" edge="1" parent="AyFpdh3RZS2hmIeQLzF2-1" source="Jpv0Y1uDcZkm7c2eD9yi-0">
          <mxGeometry relative="1" as="geometry">
            <mxPoint x="375" y="120" as="targetPoint" />
          </mxGeometry>
        </mxCell>
        <mxCell id="Jpv0Y1uDcZkm7c2eD9yi-0" value="" style="ellipse;html=1;shape=endState;fillColor=#000000;strokeColor=#ff0000;" vertex="1" parent="AyFpdh3RZS2hmIeQLzF2-1">
          <mxGeometry x="360" y="40" width="30" height="30" as="geometry" />
        </mxCell>
        <mxCell id="EqMOyTFWERrEkDKksSV3-1" style="edgeStyle=orthogonalEdgeStyle;rounded=0;orthogonalLoop=1;jettySize=auto;html=1;exitX=0.5;exitY=1;exitDx=0;exitDy=0;entryX=0.5;entryY=0;entryDx=0;entryDy=0;entryPerimeter=0;" edge="1" parent="AyFpdh3RZS2hmIeQLzF2-1" source="cdBlCcfiKWGpZCEYXN0w-0" target="EqMOyTFWERrEkDKksSV3-0">
          <mxGeometry relative="1" as="geometry" />
        </mxCell>
        <mxCell id="cdBlCcfiKWGpZCEYXN0w-0" value="nhpa ma so bac si phu trach" style="rounded=1;whiteSpace=wrap;html=1;" vertex="1" parent="AyFpdh3RZS2hmIeQLzF2-1">
          <mxGeometry x="310" y="120" width="120" height="60" as="geometry" />
        </mxCell>
        <mxCell id="EqMOyTFWERrEkDKksSV3-2" value="hop le" style="edgeStyle=orthogonalEdgeStyle;rounded=0;orthogonalLoop=1;jettySize=auto;html=1;exitX=0.5;exitY=1;exitDx=0;exitDy=0;exitPerimeter=0;" edge="1" parent="AyFpdh3RZS2hmIeQLzF2-1" source="EqMOyTFWERrEkDKksSV3-0">
          <mxGeometry relative="1" as="geometry">
            <mxPoint x="370" y="360" as="targetPoint" />
          </mxGeometry>
        </mxCell>
        <mxCell id="EqMOyTFWERrEkDKksSV3-3" value="khong hop le" style="edgeStyle=orthogonalEdgeStyle;rounded=0;orthogonalLoop=1;jettySize=auto;html=1;exitX=1;exitY=0.5;exitDx=0;exitDy=0;exitPerimeter=0;entryX=1;entryY=0.5;entryDx=0;entryDy=0;" edge="1" parent="AyFpdh3RZS2hmIeQLzF2-1" source="EqMOyTFWERrEkDKksSV3-0" target="cdBlCcfiKWGpZCEYXN0w-0">
          <mxGeometry relative="1" as="geometry">
            <mxPoint x="550" y="260" as="targetPoint" />
            <Array as="points">
              <mxPoint x="530" y="260" />
              <mxPoint x="530" y="150" />
            </Array>
          </mxGeometry>
        </mxCell>
        <mxCell id="EqMOyTFWERrEkDKksSV3-0" value="kiem tra hop le&amp;nbsp;" style="strokeWidth=2;html=1;shape=mxgraph.flowchart.decision;whiteSpace=wrap;" vertex="1" parent="AyFpdh3RZS2hmIeQLzF2-1">
          <mxGeometry x="320" y="210" width="100" height="100" as="geometry" />
        </mxCell>
        <mxCell id="EqMOyTFWERrEkDKksSV3-8" style="edgeStyle=orthogonalEdgeStyle;rounded=0;orthogonalLoop=1;jettySize=auto;html=1;exitX=0.5;exitY=1;exitDx=0;exitDy=0;entryX=0.5;entryY=0;entryDx=0;entryDy=0;" edge="1" parent="AyFpdh3RZS2hmIeQLzF2-1" source="EqMOyTFWERrEkDKksSV3-5" target="EqMOyTFWERrEkDKksSV3-6">
          <mxGeometry relative="1" as="geometry" />
        </mxCell>
        <mxCell id="EqMOyTFWERrEkDKksSV3-5" value="nhap ma so benh nhan" style="rounded=0;whiteSpace=wrap;html=1;" vertex="1" parent="AyFpdh3RZS2hmIeQLzF2-1">
          <mxGeometry x="320" y="360" width="120" height="60" as="geometry" />
        </mxCell>
        <mxCell id="EqMOyTFWERrEkDKksSV3-9" value="khong hop le" style="edgeStyle=orthogonalEdgeStyle;rounded=0;orthogonalLoop=1;jettySize=auto;html=1;exitX=1;exitY=0.5;exitDx=0;exitDy=0;entryX=1;entryY=0.75;entryDx=0;entryDy=0;" edge="1" parent="AyFpdh3RZS2hmIeQLzF2-1" source="EqMOyTFWERrEkDKksSV3-6" target="EqMOyTFWERrEkDKksSV3-5">
          <mxGeometry relative="1" as="geometry">
            <Array as="points">
              <mxPoint x="570" y="500" />
              <mxPoint x="570" y="405" />
            </Array>
          </mxGeometry>
        </mxCell>
        <mxCell id="EqMOyTFWERrEkDKksSV3-10" value="hop le" style="edgeStyle=orthogonalEdgeStyle;rounded=0;orthogonalLoop=1;jettySize=auto;html=1;exitX=0.5;exitY=1;exitDx=0;exitDy=0;" edge="1" parent="AyFpdh3RZS2hmIeQLzF2-1" source="EqMOyTFWERrEkDKksSV3-6" target="EqMOyTFWERrEkDKksSV3-11">
          <mxGeometry relative="1" as="geometry">
            <mxPoint x="375" y="620" as="targetPoint" />
          </mxGeometry>
        </mxCell>
        <mxCell id="EqMOyTFWERrEkDKksSV3-6" value="kiem tra&amp;nbsp;" style="rhombus;whiteSpace=wrap;html=1;" vertex="1" parent="AyFpdh3RZS2hmIeQLzF2-1">
          <mxGeometry x="335" y="460" width="80" height="80" as="geometry" />
        </mxCell>
        <mxCell id="EqMOyTFWERrEkDKksSV3-11" value="cap nhat y ba" style="rounded=0;whiteSpace=wrap;html=1;" vertex="1" parent="AyFpdh3RZS2hmIeQLzF2-1">
          <mxGeometry x="310" y="630" width="120" height="60" as="geometry" />
        </mxCell>
      </root>
    </mxGraphModel>
  </diagram>
  <diagram id="oMUxlR5SgqolWiV7He9W" name="Page-5">
    <mxGraphModel dx="1039" dy="499" grid="1" gridSize="10" guides="1" tooltips="1" connect="1" arrows="1" fold="1" page="1" pageScale="1" pageWidth="827" pageHeight="1169" math="0" shadow="0">
      <root>
        <mxCell id="QVESzfJ1VLEsB1Le8T32-0" />
        <mxCell id="QVESzfJ1VLEsB1Le8T32-1" parent="QVESzfJ1VLEsB1Le8T32-0" />
        <mxCell id="P6REDZ7AYogz9QGciHQU-1" style="edgeStyle=orthogonalEdgeStyle;rounded=0;orthogonalLoop=1;jettySize=auto;html=1;exitX=0.5;exitY=1;exitDx=0;exitDy=0;" edge="1" parent="QVESzfJ1VLEsB1Le8T32-1" source="P6REDZ7AYogz9QGciHQU-0" target="P6REDZ7AYogz9QGciHQU-2">
          <mxGeometry relative="1" as="geometry">
            <mxPoint x="385" y="130" as="targetPoint" />
          </mxGeometry>
        </mxCell>
        <mxCell id="P6REDZ7AYogz9QGciHQU-0" value="" style="ellipse;html=1;shape=endState;fillColor=#000000;strokeColor=#ff0000;" vertex="1" parent="QVESzfJ1VLEsB1Le8T32-1">
          <mxGeometry x="370" y="10" width="30" height="30" as="geometry" />
        </mxCell>
        <mxCell id="P6REDZ7AYogz9QGciHQU-3" style="edgeStyle=orthogonalEdgeStyle;rounded=0;orthogonalLoop=1;jettySize=auto;html=1;exitX=0.5;exitY=1;exitDx=0;exitDy=0;" edge="1" parent="QVESzfJ1VLEsB1Le8T32-1" source="P6REDZ7AYogz9QGciHQU-2" target="P6REDZ7AYogz9QGciHQU-4">
          <mxGeometry relative="1" as="geometry">
            <mxPoint x="385" y="210" as="targetPoint" />
          </mxGeometry>
        </mxCell>
        <mxCell id="P6REDZ7AYogz9QGciHQU-2" value="nhap ma so benh nhan" style="html=1;" vertex="1" parent="QVESzfJ1VLEsB1Le8T32-1">
          <mxGeometry x="330" y="70" width="110" height="60" as="geometry" />
        </mxCell>
        <mxCell id="P6REDZ7AYogz9QGciHQU-5" value="hop le&amp;nbsp;" style="edgeStyle=orthogonalEdgeStyle;rounded=0;orthogonalLoop=1;jettySize=auto;html=1;exitX=0.5;exitY=1;exitDx=0;exitDy=0;" edge="1" parent="QVESzfJ1VLEsB1Le8T32-1" source="P6REDZ7AYogz9QGciHQU-4" target="P6REDZ7AYogz9QGciHQU-6">
          <mxGeometry relative="1" as="geometry">
            <mxPoint x="385" y="320" as="targetPoint" />
          </mxGeometry>
        </mxCell>
        <mxCell id="P6REDZ7AYogz9QGciHQU-7" value="khong hop le" style="edgeStyle=orthogonalEdgeStyle;rounded=0;orthogonalLoop=1;jettySize=auto;html=1;exitX=1;exitY=0.5;exitDx=0;exitDy=0;" edge="1" parent="QVESzfJ1VLEsB1Le8T32-1" source="P6REDZ7AYogz9QGciHQU-4" target="P6REDZ7AYogz9QGciHQU-8">
          <mxGeometry relative="1" as="geometry">
            <mxPoint x="590" y="213" as="targetPoint" />
          </mxGeometry>
        </mxCell>
        <mxCell id="P6REDZ7AYogz9QGciHQU-4" value="kiem tra hop le&lt;br&gt;(co chi dinh cua bac si , &lt;br&gt;hoan thannh vien phi )&amp;nbsp;" style="html=1;" vertex="1" parent="QVESzfJ1VLEsB1Le8T32-1">
          <mxGeometry x="330" y="270" width="110" height="55" as="geometry" />
        </mxCell>
        <mxCell id="P6REDZ7AYogz9QGciHQU-6" value="cho xuat vien va luu&lt;br&gt;&amp;nbsp;thong tin vao he thong" style="html=1;" vertex="1" parent="QVESzfJ1VLEsB1Le8T32-1">
          <mxGeometry x="330" y="380" width="110" height="50" as="geometry" />
        </mxCell>
        <mxCell id="P6REDZ7AYogz9QGciHQU-8" value="tu choi xuat vien" style="html=1;" vertex="1" parent="QVESzfJ1VLEsB1Le8T32-1">
          <mxGeometry x="630" y="350" width="110" height="50" as="geometry" />
        </mxCell>
        <mxCell id="0Ai-zAEGjEdkmeRcEtoF-1" value="hop le" style="edgeStyle=orthogonalEdgeStyle;rounded=0;orthogonalLoop=1;jettySize=auto;html=1;" edge="1" parent="QVESzfJ1VLEsB1Le8T32-1" source="0Ai-zAEGjEdkmeRcEtoF-0" target="P6REDZ7AYogz9QGciHQU-4">
          <mxGeometry relative="1" as="geometry" />
        </mxCell>
        <mxCell id="0Ai-zAEGjEdkmeRcEtoF-2" value="khong hop le" style="edgeStyle=orthogonalEdgeStyle;rounded=0;orthogonalLoop=1;jettySize=auto;html=1;exitX=1;exitY=0.5;exitDx=0;exitDy=0;entryX=1;entryY=0.5;entryDx=0;entryDy=0;" edge="1" parent="QVESzfJ1VLEsB1Le8T32-1" source="0Ai-zAEGjEdkmeRcEtoF-0" target="P6REDZ7AYogz9QGciHQU-2">
          <mxGeometry relative="1" as="geometry">
            <Array as="points">
              <mxPoint x="570" y="195" />
              <mxPoint x="570" y="100" />
            </Array>
          </mxGeometry>
        </mxCell>
        <mxCell id="0Ai-zAEGjEdkmeRcEtoF-0" value="Object" style="html=1;" vertex="1" parent="QVESzfJ1VLEsB1Le8T32-1">
          <mxGeometry x="330" y="170" width="110" height="50" as="geometry" />
        </mxCell>
      </root>
    </mxGraphModel>
  </diagram>
</mxfile>
